<svg width="240" height="300" viewBox="0 0 240 300" fill="none" xmlns="http://www.w3.org/2000/svg">
<rect width="240" height="300" fill="#F9CED7"/>
<path d="M128.594 277.576V278.916H127.062V285H125.312V278.916H124.205V277.576H125.312V276.865C125.312 275.416 126.215 274.637 127.637 274.637C128.047 274.637 128.416 274.678 128.744 274.746V276.127C128.457 276.086 128.238 276.072 128.115 276.072C127.404 276.072 127.062 276.359 127.062 277.029V277.576H128.594ZM129.838 285V277.576H131.533V278.807H131.615C131.875 277.959 132.6 277.467 133.447 277.467C133.639 277.467 133.912 277.48 134.076 277.508V279.121C133.926 279.066 133.557 279.012 133.27 279.012C132.299 279.012 131.588 279.682 131.588 280.625V285H129.838ZM138.109 285.15C135.949 285.15 134.555 283.619 134.555 281.322C134.555 279.012 135.949 277.48 138.109 277.48C140.283 277.48 141.664 279.012 141.664 281.322C141.664 283.619 140.283 285.15 138.109 285.15ZM138.123 283.756C139.312 283.756 139.9 282.676 139.9 281.309C139.9 279.955 139.312 278.861 138.123 278.861C136.906 278.861 136.318 279.955 136.318 281.309C136.318 282.676 136.906 283.756 138.123 283.756ZM143.018 285V277.576H144.686V278.834H144.781C145.082 277.986 145.834 277.48 146.818 277.48C147.83 277.48 148.541 277.986 148.828 278.834H148.91C149.238 278.014 150.059 277.48 151.139 277.48C152.492 277.48 153.449 278.355 153.449 280.01V285H151.713V280.283C151.713 279.354 151.152 278.943 150.441 278.943C149.58 278.943 149.088 279.531 149.088 280.365V285H147.393V280.215C147.393 279.449 146.873 278.943 146.135 278.943C145.383 278.943 144.768 279.559 144.768 280.488V285H143.018ZM156.197 285.109C155.609 285.109 155.131 284.631 155.131 284.043C155.131 283.469 155.609 282.99 156.197 282.99C156.758 282.99 157.25 283.469 157.25 284.043C157.25 284.631 156.758 285.109 156.197 285.109Z" fill="white"/>
<path d="M31.4785 32.5918V31.1016H39.3672V32.5918H36.3184V41H34.541V32.5918H31.4785ZM42.8398 41.1504C40.6797 41.1504 39.2852 39.6191 39.2852 37.3223C39.2852 35.0117 40.6797 33.4805 42.8398 33.4805C45.0137 33.4805 46.3945 35.0117 46.3945 37.3223C46.3945 39.6191 45.0137 41.1504 42.8398 41.1504ZM42.8535 39.7559C44.043 39.7559 44.6309 38.6758 44.6309 37.3086C44.6309 35.9551 44.043 34.8613 42.8535 34.8613C41.6367 34.8613 41.0488 35.9551 41.0488 37.3086C41.0488 38.6758 41.6367 39.7559 42.8535 39.7559ZM48.8281 41.1094C48.2402 41.1094 47.7617 40.6309 47.7617 40.043C47.7617 39.4688 48.2402 38.9902 48.8281 38.9902C49.3887 38.9902 49.8809 39.4688 49.8809 40.043C49.8809 40.6309 49.3887 41.1094 48.8281 41.1094Z" fill="white"/>
<line x1="32" y1="49" x2="207" y2="49" stroke="#DFE4E6" stroke-width="2" stroke-linecap="round"/>
</svg>
